<svg xmlns="http://www.w3.org/2000/svg" xmlns:xlink="http://www.w3.org/1999/xlink" width="500" zoomAndPan="magnify" viewBox="0 0 375 374.999991" height="500" preserveAspectRatio="xMidYMid meet" version="1.0"><defs><g/><clipPath id="0c7888f6a1"><path d="M 32.5 62.457031 L 343 62.457031 L 343 312.542969 L 32.5 312.542969 Z M 32.5 62.457031 " clip-rule="nonzero"/></clipPath><clipPath id="ad181569ed"><path d="M 146.886719 62.457031 L 311.472656 62.457031 C 321.378906 62.457031 330.679688 67.21875 336.46875 75.253906 C 342.261719 83.289062 343.835938 93.617188 340.707031 103.011719 L 284.378906 271.988281 C 276.308594 296.207031 253.640625 312.542969 228.113281 312.542969 L 63.527344 312.542969 C 53.621094 312.542969 44.320312 307.78125 38.53125 299.746094 C 32.738281 291.710938 31.164062 281.382812 34.292969 271.988281 L 90.621094 103.011719 C 98.691406 78.792969 121.359375 62.457031 146.886719 62.457031 Z M 146.886719 62.457031 " clip-rule="nonzero"/></clipPath></defs><g clip-path="url(#0c7888f6a1)"><g clip-path="url(#ad181569ed)"><path fill="#000000" d="M 20.777344 62.457031 L 353.898438 62.457031 L 353.898438 312.542969 L 20.777344 312.542969 Z M 20.777344 62.457031 " fill-opacity="1" fill-rule="nonzero"/></g></g><g fill="#5e17eb" fill-opacity="1"><g transform="translate(70.276444, 222.986283)"><g><path d="M 44.65625 2.140625 C 32.550781 2.140625 22.851562 -1.269531 15.5625 -8.09375 C 8.269531 -14.914062 4.625 -24.609375 4.625 -37.171875 L 27.390625 -37.171875 C 27.515625 -31.367188 28.878906 -26.742188 31.484375 -23.296875 C 34.097656 -19.859375 38.304688 -18.140625 44.109375 -18.140625 C 49.566406 -18.140625 53.539062 -19.769531 56.03125 -23.03125 C 58.519531 -26.289062 59.765625 -30.59375 59.765625 -35.9375 L 59.765625 -124.515625 L 82.546875 -124.515625 L 82.546875 -35.9375 C 82.546875 -23.71875 79.132812 -14.316406 72.3125 -7.734375 C 65.488281 -1.148438 56.269531 2.140625 44.65625 2.140625 Z M 44.65625 2.140625 "/></g></g></g><g fill="#ffffff" fill-opacity="1"><g transform="translate(165.727786, 222.051785)"><g><path d="M 25.71875 1.234375 C 19.363281 1.234375 14.460938 -0.742188 11.015625 -4.703125 C 7.566406 -8.671875 5.84375 -14.476562 5.84375 -22.125 L 5.84375 -50.8125 L 18.84375 -50.8125 L 18.84375 -23.359375 C 18.84375 -18.984375 19.726562 -15.632812 21.5 -13.3125 C 23.28125 -10.988281 26.082031 -9.828125 29.90625 -9.828125 C 33.53125 -9.828125 36.519531 -11.125 38.875 -13.71875 C 41.226562 -16.320312 42.40625 -19.941406 42.40625 -24.578125 L 42.40625 -50.8125 L 55.515625 -50.8125 L 55.515625 0 L 43.953125 0 L 42.921875 -8.609375 C 41.347656 -5.597656 39.078125 -3.203125 36.109375 -1.421875 C 33.140625 0.347656 29.675781 1.234375 25.71875 1.234375 Z M 25.71875 1.234375 "/></g></g></g><g fill="#ffffff" fill-opacity="1"><g transform="translate(228.01169, 222.051785)"><g><path d="M 30.015625 1.234375 C 25.234375 1.234375 20.960938 0.0703125 17.203125 -2.25 C 13.453125 -4.570312 10.484375 -7.75 8.296875 -11.78125 C 6.109375 -15.8125 5.015625 -20.382812 5.015625 -25.5 C 5.015625 -30.625 6.109375 -35.179688 8.296875 -39.171875 C 10.484375 -43.171875 13.453125 -46.3125 17.203125 -48.59375 C 20.960938 -50.882812 25.234375 -52.03125 30.015625 -52.03125 C 33.835938 -52.03125 37.179688 -51.3125 40.046875 -49.875 C 42.921875 -48.445312 45.242188 -46.4375 47.015625 -43.84375 L 47.015625 -73.75 L 60.125 -73.75 L 60.125 0 L 48.453125 0 L 47.015625 -7.265625 C 45.378906 -5.015625 43.210938 -3.035156 40.515625 -1.328125 C 37.816406 0.378906 34.316406 1.234375 30.015625 1.234375 Z M 32.78125 -10.25 C 37.007812 -10.25 40.472656 -11.664062 43.171875 -14.5 C 45.867188 -17.332031 47.21875 -20.96875 47.21875 -25.40625 C 47.21875 -29.84375 45.867188 -33.476562 43.171875 -36.3125 C 40.472656 -39.144531 37.007812 -40.5625 32.78125 -40.5625 C 28.613281 -40.5625 25.164062 -39.160156 22.4375 -36.359375 C 19.707031 -33.566406 18.34375 -29.945312 18.34375 -25.5 C 18.34375 -21.0625 19.707031 -17.410156 22.4375 -14.546875 C 25.164062 -11.679688 28.613281 -10.25 32.78125 -10.25 Z M 32.78125 -10.25 "/></g></g></g><g fill="#ffffff" fill-opacity="1"><g transform="translate(294.802983, 222.051785)"><g><path d="M 31.03125 1.234375 C 26.113281 1.234375 21.691406 0.109375 17.765625 -2.140625 C 13.835938 -4.398438 10.726562 -7.523438 8.4375 -11.515625 C 6.15625 -15.515625 5.015625 -20.144531 5.015625 -25.40625 C 5.015625 -30.664062 6.175781 -35.289062 8.5 -39.28125 C 10.820312 -43.28125 13.945312 -46.40625 17.875 -48.65625 C 21.800781 -50.90625 26.222656 -52.03125 31.140625 -52.03125 C 35.984375 -52.03125 40.367188 -50.90625 44.296875 -48.65625 C 48.222656 -46.40625 51.332031 -43.28125 53.625 -39.28125 C 55.914062 -35.289062 57.0625 -30.664062 57.0625 -25.40625 C 57.0625 -20.144531 55.914062 -15.515625 53.625 -11.515625 C 51.332031 -7.523438 48.207031 -4.398438 44.25 -2.140625 C 40.289062 0.109375 35.882812 1.234375 31.03125 1.234375 Z M 31.03125 -10.140625 C 34.445312 -10.140625 37.414062 -11.421875 39.9375 -13.984375 C 42.46875 -16.546875 43.734375 -20.351562 43.734375 -25.40625 C 43.734375 -30.457031 42.46875 -34.265625 39.9375 -36.828125 C 37.414062 -39.390625 34.484375 -40.671875 31.140625 -40.671875 C 27.660156 -40.671875 24.671875 -39.390625 22.171875 -36.828125 C 19.679688 -34.265625 18.4375 -30.457031 18.4375 -25.40625 C 18.4375 -20.351562 19.679688 -16.546875 22.171875 -13.984375 C 24.671875 -11.421875 27.625 -10.140625 31.03125 -10.140625 Z M 31.03125 -10.140625 "/></g></g></g></svg>